<?xml version="1.0" encoding="UTF-8" standalone="no"?>
<!-- Generator: Adobe Illustrator 19.2.1, SVG Export Plug-In . SVG Version: 6.00 Build 0)  -->

<svg
   xmlns:dc="http://purl.org/dc/elements/1.1/"
   xmlns:cc="http://creativecommons.org/ns#"
   xmlns:rdf="http://www.w3.org/1999/02/22-rdf-syntax-ns#"
   xmlns:svg="http://www.w3.org/2000/svg"
   xmlns="http://www.w3.org/2000/svg"
   xmlns:sodipodi="http://sodipodi.sourceforge.net/DTD/sodipodi-0.dtd"
   xmlns:inkscape="http://www.inkscape.org/namespaces/inkscape"
   version="1.1"
   id="Layer_1_xA0_Image_1_"
   x="0px"
   y="0px"
   viewBox="0 0 336 324"
   style="enable-background:new 0 0 336 324;"
   xml:space="preserve"
   inkscape:version="0.91 r13725"
   sodipodi:docname="direction.svg"><metadata
     id="metadata4145"><rdf:RDF><cc:Work
         rdf:about=""><dc:format>image/svg+xml</dc:format><dc:type
           rdf:resource="http://purl.org/dc/dcmitype/StillImage" /></cc:Work></rdf:RDF></metadata><defs
     id="defs4143" /><sodipodi:namedview
     pagecolor="#ffffff"
     bordercolor="#666666"
     borderopacity="1"
     objecttolerance="10"
     gridtolerance="10"
     guidetolerance="10"
     inkscape:pageopacity="0"
     inkscape:pageshadow="2"
     inkscape:window-width="1440"
     inkscape:window-height="806"
     id="namedview4141"
     showgrid="false"
     inkscape:zoom="1.8641975"
     inkscape:cx="168"
     inkscape:cy="162"
     inkscape:window-x="0"
     inkscape:window-y="1"
     inkscape:window-maximized="1"
     inkscape:current-layer="Layer_1_xA0_Image_1_" /><style
     type="text/css"
     id="style4137">
	.st0{fill:#FFFFFF;}
</style><path
     class="st0"
     d="M168.2,315.8c-34.6-48.1-70.5-91.8-99.9-139.7c-36.4-59.3-7.9-133.8,55.2-159C185-7.5,250.6,20.5,274,77.8  c14.8,36.4,13.5,73.9-9.9,107.1c-29.9,42.4-61.5,83.8-92.5,125.5C170.7,311.3,170,312.7,168.2,315.8z M168,171.7  c27.4,0,51.2-22.9,51.6-49.9C220,96,194.9,71.3,168.4,71c-27.6,0-50.8,22.9-51,50.3C117.2,149.2,139.7,171.4,168,171.7z"
     id="path4139"
     style="fill:#339999;fill-opacity:1" /></svg>