<?xml version="1.0" encoding="UTF-8" standalone="no"?>
<!-- Generator: Adobe Illustrator 19.2.1, SVG Export Plug-In . SVG Version: 6.00 Build 0)  -->

<svg
   xmlns:dc="http://purl.org/dc/elements/1.1/"
   xmlns:cc="http://creativecommons.org/ns#"
   xmlns:rdf="http://www.w3.org/1999/02/22-rdf-syntax-ns#"
   xmlns:svg="http://www.w3.org/2000/svg"
   xmlns="http://www.w3.org/2000/svg"
   xmlns:sodipodi="http://sodipodi.sourceforge.net/DTD/sodipodi-0.dtd"
   xmlns:inkscape="http://www.inkscape.org/namespaces/inkscape"
   version="1.1"
   id="Layer_1"
   x="0px"
   y="0px"
   viewBox="0 0 98.4 198.3"
   style="enable-background:new 0 0 98.4 198.3;"
   xml:space="preserve"
   inkscape:version="0.91 r13725"
   sodipodi:docname="map.svg"><metadata
     id="metadata3405"><rdf:RDF><cc:Work
         rdf:about=""><dc:format>image/svg+xml</dc:format><dc:type
           rdf:resource="http://purl.org/dc/dcmitype/StillImage" /></cc:Work></rdf:RDF></metadata><defs
     id="defs3403" /><sodipodi:namedview
     pagecolor="#ffffff"
     bordercolor="#666666"
     borderopacity="1"
     objecttolerance="10"
     gridtolerance="10"
     guidetolerance="10"
     inkscape:pageopacity="0"
     inkscape:pageshadow="2"
     inkscape:window-width="1221"
     inkscape:window-height="791"
     id="namedview3401"
     showgrid="false"
     inkscape:zoom="3.04589"
     inkscape:cx="-1.3599339"
     inkscape:cy="99.150002"
     inkscape:window-x="20"
     inkscape:window-y="43"
     inkscape:window-maximized="0"
     inkscape:current-layer="Layer_1" /><style
     type="text/css"
     id="style3397">
	.st0{opacity:0.5;fill:#FFB37B;enable-background:new    ;}
</style><path
     class="st0"
     d="M30.1,196.6c-3.3,0.5-6.6,1.1-9.9,1.8c-1.1-0.4-2.5-0.8-3.9-1.3c-0.3-0.7-0.6-1.5-1-2.5  c0.5-0.5,0.9-0.9,1.2-1.1c-1.5-2.8-3-5.4-4.3-7.5c0.5-1.3,0.9-2.4,1.3-3.3c0.8-0.4,1.8-0.8,2.6-1.3c-6.3-6-10.3-12.6-11.1-20.2  c-0.9-0.3-1.9-0.6-2.7-0.9c-0.7-4.3-1.4-8.8-2.3-13.1c0.8-0.4,1.8-0.8,2.9-1.4c0.5,1.1,0.9,2.1,1.3,2.9c0.4,0,0.7,0,1.1,0  c0.3-2.1,0.7-4,0.9-6c0.2-1.9,0.2-3.5,0.2-5.4c0.3,0,0.6,0,0.9-0.1c0.1-0.7,0.1-1.3,0.2-2.3c1-0.2,2.1-0.3,2.6-0.4  c6.7-5.5,2.3-10.3,0.7-15.1c6.3-3.1,6.3-3.5,2.2-7.2c-1.1-1.1-1.9-2.9-2.1-4.4c-0.3-2.3,0-4.5-0.2-6.8c-0.1-1.3-0.8-2.8-0.6-4  c0.4-4.3,1-8.9,1.8-13.5c3.5-3.5,4.9-10.2,13.6-7.2c2.7-2.9,2.2-4.2-2-6.8c2-3.7,4.4-7.3,5.7-11c1.1-3.8,0.8-7.7,1.2-11.8  c1.9-0.4,3.6-0.9,5.5-1.3c-0.4-4.7,3.3-8,5.8-11.7c0.7-1.1,0.2-2.8,0.1-4.2c0-1-0.6-2.2-0.3-3.1c0.6-1.8,1.8-3.3,2.8-4.9  c0.8-1.3,2.1-2.7,2.9-3.9c2.1,0.1,3.4,0.2,5.5,0.2c0-2.4,0-4.4-0.1-7c3.7-0.2,7.4-0.5,11.3-0.7c0.3-2.6,0.7-5.3,1.1-8.2  c0.3-0.2,1.2-0.7,2.2-1.1c0.5-0.1,1-0.2,1.5-0.3c1.9,4.1,6.6,5.6,10.8,7.4c2.1,0.8,4.1,1.5,6.1,2.5c4.5,2.1,3.3,6.2,5.1,9.3  c0.4,1.8,0.8,3.4,1.2,5.1c2.4,3,4.1,6.1,2.3,10.1c-0.3,0.7,0.7,1.9,1.3,2.7S97,39,98,39.9c0.1,0.8,0.3,1.8,0.4,2.7  c-1.1,0.4-2.3,0.6-3.3,1.1c-2.9,1.2-6.1,2.4-8.5,4.1c-1.9,1.2-2.8,3.4-4.2,5.4c0.2,0.6,0.5,1.3,0.9,2.4c-2.8,3.2-5,6.5,0.6,8.6  c-3.8,6.2-6.3,12.5-12.8,16.9c-0.7,0.1-1.5,0.3-1.8,0.3c-2.3,1.5-3.9,2.9-6.5,4.6c-0.9,3.8-2.3,8.5-7,11.3  c-0.2,3.6-0.3,6.8-0.5,10.1c-0.4,0.4-1,0.8-1.3,1.1c0.7,4.1,1.3,8,2.1,11.9c2.5,0.1,4,0.1,5.9,0.2c3.8,3.3,7.7,6.6,11.7,9.9  c-1,1.4-2.1,2.7-2.9,3.7c0.3,0.9,0.8,1.8,0.8,2.6c0.2,2.8-3.6,7.6-6.7,9c-4.4,2-9.6,3.2-11.6,7.5c1,11.2-4,32.1-8.2,33.2  c-0.6-0.2-1.2-0.4-1.5-0.5c-2.9,0.3-5.3,0.5-7.2,0.7c-1.2,0.7-2.4,1.2-3.3,1.9c-2.1,1.2-3.6,2.6-2.7,4.9  C31,193.6,30.3,195.2,30.1,196.6z"
     id="path3399" /><path
     style="fill:#646466;stroke:none;stroke-width:1px;stroke-linecap:butt;stroke-linejoin:miter;stroke-opacity:1;fill-opacity:1"
     d="m 18.092364,197.62244 c -2.177947,-0.76728 -3.10973,-2.45087 -2.021778,-3.65304 0.440204,-0.48642 0.273555,-0.91979 -1.650064,-4.29098 l -2.139721,-3.74992 0.602696,-1.48032 c 0.430417,-1.05717 0.948753,-1.66801 1.813332,-2.13694 0.66585,-0.36114 1.211035,-0.7872 1.211523,-0.94679 4.92e-4,-0.15959 -0.997563,-1.34152 -2.21789,-2.62649 -4.2251579,-4.44899 -7.0306624,-9.56177 -8.1354035,-14.82605 l -0.583699,-2.78143 -1.2687812,-0.38013 c -0.8412648,-0.25205 -1.3195902,-0.61079 -1.4195715,-1.06467 -0.3471197,-1.5758 -2.13139373,-12.44915 -2.05347568,-12.51386 0.29938645,-0.24864 2.23889368,-1.13897 2.48115158,-1.13897 0.1621476,0 0.5269494,0.59096 0.8106711,1.31324 0.3591321,0.91427 0.7127154,1.31325 1.1638108,1.31325 0.535151,0 0.7145413,-0.35723 1.0304388,-2.05195 0.2103664,-1.12857 0.4706506,-3.60321 0.5784089,-5.49921 0.1254789,-2.20778 0.3473609,-3.56531 0.6171024,-3.77558 0.2316482,-0.18057 0.4673051,-0.76573 0.5236824,-1.30034 0.088798,-0.84206 0.2771607,-1.00809 1.4087006,-1.24163 1.5062133,-0.31087 2.8306463,-1.45404 4.0180673,-3.46813 1.202409,-2.03952 0.963829,-5.11057 -0.684973,-8.81709 -0.655613,-1.47382 -1.192022,-2.75571 -1.192022,-2.84863 0,-0.0929 0.837912,-0.64836 1.862027,-1.2343 2.159478,-1.23552 3.062642,-2.05616 3.062642,-2.7828 0,-0.28426 -0.80629,-1.36215 -1.791755,-2.3953 -2.487198,-2.60757 -3.115186,-4.13008 -3.132207,-7.59382 -0.0075,-1.53485 -0.175783,-3.82482 -0.373867,-5.08882 -0.490854,-3.132198 -0.402775,-5.054306 0.523832,-11.431279 l 0.79427,-5.466219 2.324207,-3.042145 c 2.993304,-3.917926 4.023137,-4.629058 6.942494,-4.794018 1.23191,-0.06961 2.683381,0.02807 3.22549,0.21704 0.892712,0.3112 1.064129,0.250338 1.817886,-0.645453 1.228232,-1.459669 1.124496,-2.912219 -0.297121,-4.160416 -0.621145,-0.545371 -1.396781,-1.14513 -1.723634,-1.332793 -0.562219,-0.322802 -0.548781,-0.426125 0.249094,-1.915151 0.463855,-0.865665 1.595939,-2.977468 2.515741,-4.692894 2.373543,-4.426647 2.729339,-5.721047 3.157672,-11.487743 l 0.377749,-5.085676 2.708568,-0.614569 c 2.573898,-0.584013 2.708568,-0.658743 2.708568,-1.503039 0,-1.916825 1.047579,-4.312293 3.122003,-7.138987 3.32277,-4.527745 3.245948,-4.313954 2.806041,-7.808865 -0.451254,-3.585067 -0.399578,-3.760184 2.256808,-7.647434 3.309854,-4.843513 2.811717,-4.484396 5.890988,-4.246939 l 2.668034,0.205744 0,-3.567514 0,-3.567514 4.51428,-0.231092 c 2.482854,-0.127101 5.026449,-0.332501 5.65243,-0.456446 l 1.138153,-0.225353 0.510669,-3.7631565 c 0.280867,-2.069736 0.619733,-3.9361956 0.753034,-4.1476882 0.133301,-0.2114925 0.931029,-0.6475348 1.772727,-0.9689829 1.472085,-0.56219482 1.543844,-0.56182508 1.884395,0.00971 0.880045,1.4769545 1.757972,2.3436221 3.542367,3.4969307 1.709257,1.104748 3.518505,1.9221268 11.414864,5.1569866 2.983962,1.2224238 4.460706,2.6490978 5.12549,4.9517058 0.294646,1.020561 0.808716,2.668137 1.142372,3.661278 0.33366,0.993142 0.842739,2.825594 1.131292,4.072116 0.295683,1.277326 0.954227,2.890785 1.509007,3.69713 1.948613,2.832211 2.479765,5.50162 1.615672,8.119851 -0.466494,1.413495 -0.202463,1.986214 1.979304,4.293372 1.016353,1.074767 1.637984,2.06322 1.782621,2.834531 l 0.22208,1.184304 -1.703492,0.557184 c -3.036469,0.993178 -8.591617,3.562568 -9.973394,4.612937 -0.740795,0.56312 -2.036873,2.02532 -2.880176,3.249333 -1.515235,2.199295 -1.527678,2.23887 -1.057569,3.363995 0.466464,1.11641 0.45042,1.173825 -0.826288,2.956729 -0.716096,1.000013 -1.394544,2.239598 -1.507664,2.754633 -0.281274,1.280638 0.507172,2.68186 1.944627,3.455982 0.645952,0.347869 1.174458,0.754413 1.174458,0.903437 0,0.44151 -3.902863,7.102318 -5.664433,9.667184 -2.219092,3.231026 -5.938543,6.720903 -7.63544,7.164159 -0.723421,0.18897 -2.67484,1.29702 -4.336486,2.462335 l -3.021176,2.118753 -0.706946,2.298179 c -0.388819,1.263998 -1.044129,2.963009 -1.456241,3.775579 -0.894261,1.763226 -3.043383,4.270903 -4.182886,4.880745 -0.800436,0.42838 -0.822916,0.546556 -1.055445,5.548294 -0.213222,4.58649 -0.306275,5.16622 -0.907384,5.65296 -0.745762,0.60388 -0.753057,0.52129 0.776184,8.78758 l 0.683288,3.6935 1.359734,0.003 c 4.280509,0.009 4.293694,0.0155 10.365719,5.1521 3.082124,2.60729 5.603863,4.86462 5.603863,5.01628 0,0.15167 -0.589608,1.02167 -1.310238,1.93334 -1.142756,1.44569 -1.268657,1.76694 -0.984934,2.51318 0.939098,2.47002 -0.101448,5.22368 -3.102288,8.20977 -1.710479,1.70208 -2.559397,2.22756 -6.052205,3.74636 -4.609021,2.00417 -6.769785,3.36557 -7.838622,4.93876 -0.642994,0.9464 -0.7387,1.50802 -0.7387,4.33477 0,10.28409 -3.376127,24.47471 -6.961112,29.25912 -0.381136,0.50865 -1.070019,0.61047 -4.824944,0.71311 -4.141923,0.11322 -4.496079,0.17672 -6.507087,1.16673 -1.16972,0.57586 -2.777055,1.6701 -3.571859,2.43165 -1.451188,1.39049 -1.748577,2.28656 -1.137686,3.42802 0.263586,0.49252 -0.0024,2.8145 -0.360781,3.14941 -0.159127,0.1487 -9.381985,1.81931 -9.875746,1.78887 -0.226979,-0.014 -1.129294,-0.2779 -2.005144,-0.58646 l 0,-10e-5 z"
     id="path3407"
     inkscape:connector-curvature="0" /></svg>